<svg width="40" height="40" viewBox="0 0 40 40" fill="none" xmlns="http://www.w3.org/2000/svg">
<path d="M5.4934 34.3369L16.1001 23.7302M29.4567 19.0136L26.2817 28.5385C26.2311 28.6912 26.1443 28.8294 26.0288 28.9414C25.9134 29.0534 25.7726 29.1359 25.6184 29.1819L6.15506 34.9669C5.97971 35.019 5.79344 35.0219 5.61651 34.9755C5.43959 34.9291 5.27878 34.835 5.15161 34.7035C5.02443 34.5721 4.93575 34.4082 4.89522 34.2298C4.85469 34.0515 4.86386 33.8654 4.92173 33.6919L11.2417 14.7352C11.287 14.5991 11.3611 14.4743 11.4588 14.3694C11.5566 14.2644 11.6758 14.1817 11.8084 14.1269L20.7867 10.4302C20.9693 10.3548 21.17 10.3352 21.3637 10.3737C21.5574 10.4123 21.7353 10.5073 21.8751 10.6469L29.2151 17.9902C29.3464 18.1215 29.4386 18.2868 29.4813 18.4676C29.5239 18.6483 29.5154 18.8374 29.4567 19.0136Z" stroke="#1F89DB" stroke-width="1.5" stroke-linecap="round" stroke-linejoin="round"/>
<path d="M29.6535 18.4267L34.3668 13.7117C34.9917 13.0866 35.3428 12.2389 35.3428 11.355C35.3428 10.4711 34.9917 9.62341 34.3668 8.99832L30.8335 5.46165C30.5239 5.15198 30.1564 4.90633 29.7519 4.73873C29.3474 4.57113 28.9138 4.48486 28.476 4.48486C28.0381 4.48486 27.6046 4.57113 27.2001 4.73873C26.7955 4.90633 26.428 5.15198 26.1185 5.46165L21.4051 10.1767M19.6351 20.1933C19.4029 19.9612 19.1273 19.7771 18.8239 19.6515C18.5205 19.526 18.1954 19.4614 17.8671 19.4614C17.5387 19.4615 17.2136 19.5263 16.9103 19.652C16.607 19.7777 16.3314 19.9619 16.0993 20.1942C15.8672 20.4264 15.6831 20.702 15.5575 21.0054C15.4319 21.3088 15.3674 21.6339 15.3674 21.9622C15.3675 22.2906 15.4323 22.6157 15.558 22.919C15.6837 23.2223 15.8679 23.4979 16.1001 23.73C16.5691 24.1988 17.2051 24.462 17.8682 24.4619C18.5313 24.4617 19.1672 24.1981 19.636 23.7292C20.1047 23.2602 20.368 22.6242 20.3679 21.9611C20.3677 21.298 20.1041 20.6621 19.6351 20.1933Z" stroke="#1F89DB" stroke-width="1.5" stroke-linecap="round" stroke-linejoin="round"/>
</svg>
