<svg width="25" height="25" viewBox="0 0 25 25" fill="none" xmlns="http://www.w3.org/2000/svg">
<path d="M12.0308 2.12305C6.51077 2.12305 2.04077 6.60305 2.04077 12.123C2.04077 17.643 6.51077 22.123 12.0308 22.123C17.5608 22.123 22.0408 17.643 22.0408 12.123C22.0408 6.60305 17.5608 2.12305 12.0308 2.12305ZM18.9608 8.12305H16.0108C15.6973 6.88466 15.2339 5.68915 14.6308 4.56305C16.4549 5.19105 17.9919 6.45477 18.9608 8.12305ZM12.0408 4.16305C12.8708 5.36305 13.5208 6.69305 13.9508 8.12305H10.1308C10.5608 6.69305 11.2108 5.36305 12.0408 4.16305ZM4.30077 14.123C4.14077 13.483 4.04077 12.813 4.04077 12.123C4.04077 11.433 4.14077 10.763 4.30077 10.123H7.68077C7.60077 10.783 7.54077 11.443 7.54077 12.123C7.54077 12.803 7.60077 13.463 7.68077 14.123H4.30077ZM5.12077 16.123H8.07077C8.39077 17.373 8.85077 18.573 9.45077 19.683C7.62532 19.0574 6.08751 17.7931 5.12077 16.123ZM8.07077 8.12305H5.12077C6.08751 6.453 7.62532 5.18866 9.45077 4.56305C8.84765 5.68915 8.38423 6.88466 8.07077 8.12305ZM12.0408 20.083C11.2108 18.883 10.5608 17.553 10.1308 16.123H13.9508C13.5208 17.553 12.8708 18.883 12.0408 20.083ZM14.3808 14.123H9.70077C9.61077 13.463 9.54077 12.803 9.54077 12.123C9.54077 11.443 9.61077 10.773 9.70077 10.123H14.3808C14.4708 10.773 14.5408 11.443 14.5408 12.123C14.5408 12.803 14.4708 13.463 14.3808 14.123ZM14.6308 19.683C15.2308 18.573 15.6908 17.373 16.0108 16.123H18.9608C17.9919 17.7913 16.4549 19.055 14.6308 19.683ZM16.4008 14.123C16.4808 13.463 16.5408 12.803 16.5408 12.123C16.5408 11.443 16.4808 10.783 16.4008 10.123H19.7808C19.9408 10.763 20.0408 11.433 20.0408 12.123C20.0408 12.813 19.9408 13.483 19.7808 14.123H16.4008Z" fill="white"/>
</svg>
