<svg width="40" height="40" viewBox="0 0 40 40" fill="none" xmlns="http://www.w3.org/2000/svg">
<path d="M3.33337 10H5.00004M5.00004 10L12.4284 29.1533C13.5117 31.9483 14.0534 33.345 14.97 33.3333C15.8867 33.3217 16.3917 31.91 17.405 29.0867L17.5 28.8217M5.00004 10H10.8334M10.8334 10H12.4284M10.8334 10L17.5 28.8233L21.36 18.3333M16.6667 10H18.3334M18.3334 10L25.7617 29.1533C26.845 31.9483 27.3884 33.345 28.3034 33.3333C29.2184 33.3217 29.725 31.91 30.7384 29.0867L30.8334 28.8217M18.3334 10H24.1667M24.1667 10H25.7617M24.1667 10L30.8334 28.8233L34.215 19.4067M34.215 19.4067L35.8967 15.39C36.5675 13.5407 36.8041 11.562 36.5884 9.60667C36.3267 7.26333 35.2634 5 32.5 5C29.9367 5 28.6834 7.87167 30.315 9.82333C32.9484 12.97 35.2867 16.4583 34.215 19.4067Z" stroke="#1F89DB" stroke-width="1.5" stroke-linecap="round" stroke-linejoin="round"/>
</svg>
